PathFileType	4	(X/Y/Z)	Walk1.trc
DataRate	CameraRate	NumFrames	NumMarkers	Units	OrigDataRate	OrigDataStartFrame	OrigNumFrames
200.000000	200.000000	9	56	mm	200.000000	799	966
Frame#	Times		LToe		LBHD		RLFC		LACR1		RTH2		C7		LElbow		LUA1		RWRU		LCAR		RMT1		RCAL		LMFC		LWRU		RMT5		RMFC		RTB2		RToe		LWRR		RCAR		RTB3		RTB4		LTH4		RTB1		RFA1		LTH1		LPSI		RElbow		LFHD		RBHD		RPSI		RElbowM		LTH3		T10		RACR1		LASI		LMMAL		LTH2		RTH3		LLFC		LCAL		RMMAL		RBack		RTH1		LTB2		LTB3		RTH4		RFHD		RLMAL		LMT5		RASI		RWRR		LMT1		LLMAL		LTB1		LTB4
			X1	Y1	Z1	X2	Y2	Z2	X3	Y3	Z3	X4	Y4	Z4	X5	Y5	Z5	X6	Y6	Z6	X7	Y7	Z7	X8	Y8	Z8	X9	Y9	Z9	X10	Y10	Z10	X11	Y11	Z11	X12	Y12	Z12	X13	Y13	Z13	X14	Y14	Z14	X15	Y15	Z15	X16	Y16	Z16	X17	Y17	Z17	X18	Y18	Z18	X19	Y19	Z19	X20	Y20	Z20	X21	Y21	Z21	X22	Y22	Z22	X23	Y23	Z23	X24	Y24	Z24	X25	Y25	Z25	X26	Y26	Z26	X27	Y27	Z27	X28	Y28	Z28	X29	Y29	Z29	X30	Y30	Z30	X31	Y31	Z31	X32	Y32	Z32	X33	Y33	Z33	X34	Y34	Z34	X35	Y35	Z35	X36	Y36	Z36	X37	Y37	Z37	X38	Y38	Z38	X39	Y39	Z39	X40	Y40	Z40	X41	Y41	Z41	X42	Y42	Z42	X43	Y43	Z43	X44	Y44	Z44	X45	Y45	Z45	X46	Y46	Z46	X47	Y47	Z47	X48	Y48	Z48	X49	Y49	Z49	X50	Y50	Z50	X51	Y51	Z51	X52	Y52	Z52	X53	Y53	Z53	X54	Y54	Z54	X55	Y55	Z55	X56	Y56	Z56

799	3.995	181.3	71.758	-48.84	293.4	1623.7	2.432	336.22	521.61	152.43	331.81	1431.9	-114.39	379.52	674.37	143.45	243.4	1482.7	55.874	235.86	1111.2	-254.12	287.01	1239.8	-207.06	232.26	803.19	294.04	248.31	969.67	-257.91	422.89	27.516	63.405	213.66	34.861	36.355	349.29	497.21	23.137	365.65	821.12	-231.01	374.79	23.088	142.99	318.33	492.37	27.022	342.51	282.9	133.07	475.93	23.288	107.04	292.82	834.03	-246.42	299.57	779.36	317.84	333.33	198.01	54.682	352.42	284.34	58.562	342.81	667.74	-127.01	369.96	380.13	67.797	223.57	923.54	321.11	325.32	758.8	-136.6	140.65	1041.5	-2.1321	204.49	1084	319.22	474.57	1620.8	30.04	295.67	1610	138.75	140.69	1045	67.288	171.45	1092.1	239.66	360.08	575.08	-113.5	158.76	1225.6	42.334	342.72	1415.2	208.36	333.43	1042.1	-123.48	70.858	181.98	-26.678	402.12	681.34	-85.233	329.89	566.77	156.56	352.08	517.76	-108.92	-17.884	203.4	-67.681	297.76	70.056	23.041	211.6	1363.8	196.98	300.96	750.18	202.75	256.11	335.81	-109.23	185.15	270.08	-43.588	319.19	657.88	182.56	476.68	1615.1	104.4	265.8	68.451	98.686	117.28	79.029	-111.46	329.71	990.73	185.52	309.72	823.96	267.93	131.21	69.312	-32.486	52.347	185.96	-110.4	326.14	391.96	-31.405	264.75	334.59	-40.342
800	4	197.81	71.597	-48.449	298.63	1624.4	2.2218	337.89	521.54	152.56	336.62	1432.5	-114.37	382.28	674.03	143.58	248.56	1483.5	55.981	238.67	1112.3	-253.75	290.66	1240.6	-206.92	238.97	804.51	295.02	249.89	970.75	-257.94	422.87	27.519	63.388	213.62	34.871	36.34	359.16	498.83	23.666	365.92	821	-231.68	374.77	23.087	142.99	319.9	492.31	27.076	343.26	282.75	133.12	475.89	23.294	107.09	293.21	834.65	-246.96	306.37	781.03	318.77	333.74	197.91	54.684	353.06	284.14	58.622	350.45	669.49	-126.76	370.78	379.92	68.036	229.7	924.81	322.08	331.92	760.38	-136.47	145.63	1042.4	-1.7044	209.98	1085.2	320.24	479.8	1621.4	29.831	300.9	1611	138.55	145.62	1045.8	67.748	176.79	1093.1	240.66	368.8	577.01	-113.17	163.79	1226.4	42.831	347.99	1416.3	208.44	338.51	1042.7	-122.95	85.07	180.06	-26.201	409.91	683.73	-85.249	331.9	566.78	156.74	361.61	519.83	-108.68	-4.0728	199.83	-67.214	297.75	70.043	23.041	216.82	1364.9	197.31	304.31	750.41	202.97	268.1	336.46	-108.89	198.01	269.81	-43.2	321.89	657.96	182.75	481.89	1615.8	104.2	265.85	68.516	98.706	133.39	78.111	-111	334.4	991.35	186.22	316.19	825.64	268.82	147.61	68.527	-32.029	66.513	183.72	-109.92	337.32	393.7	-31.238	277.57	335.53	-40.308
801	4.005	214.56	71.383	-48.057	303.87	1625.1	1.993	339.55	521.46	152.68	341.43	1433	-114.36	385.02	673.68	143.69	253.71	1484.2	56.079	241.49	1113.4	-253.4	294.34	1241.4	-206.77	245.68	805.82	295.99	251.48	971.82	-257.98	422.86	27.522	63.361	213.58	34.883	36.331	368.72	500.45	24.078	366.2	820.88	-232.36	374.75	23.086	143	321.45	492.24	27.125	344	282.59	133.17	475.85	23.296	107.13	293.61	835.28	-247.5	313.18	782.7	319.7	334.15	197.82	54.683	353.69	283.95	58.678	358.05	671.24	-126.53	371.65	379.72	68.243	235.82	926.06	323.06	338.49	761.94	-136.36	150.59	1043.2	-1.2852	215.46	1086.3	321.25	485.04	1621.9	29.599	306.12	1611.9	138.33	150.54	1046.6	68.203	182.13	1094.1	241.68	377.44	578.94	-112.84	168.81	1227.2	43.332	353.27	1417.3	208.5	343.54	1043.3	-122.44	99.49	177.95	-25.703	417.6	686.12	-85.235	333.91	566.78	156.92	371.04	521.89	-108.43	9.9664	195.98	-66.709	297.74	70.029	23.046	222.05	1365.9	197.64	307.65	750.61	203.17	280.12	337.05	-108.53	210.97	269.42	-42.813	324.56	658.02	182.92	487.1	1616.4	103.99	265.9	68.581	98.727	149.75	77.068	-110.53	339.09	991.92	186.88	322.68	827.32	269.71	164.28	67.617	-31.554	80.886	181.26	-109.41	348.43	395.39	-31.044	290.26	336.33	-40.195
802	4.01	231.55	71.13	-47.662	309.11	1625.8	1.7473	341.22	521.38	152.8	346.23	1433.6	-114.35	387.76	673.33	143.81	258.86	1485	56.167	244.33	1114.5	-253.06	298.04	1242.2	-206.61	252.39	807.12	296.97	253.08	972.89	-258.01	422.85	27.525	63.322	213.55	34.897	36.327	377.97	502.08	24.357	366.47	820.75	-233.04	374.73	23.087	143.01	322.98	492.16	27.171	344.75	282.43	133.2	475.81	23.297	107.16	294.02	835.92	-248.05	320.01	784.36	320.61	334.56	197.72	54.68	354.34	283.76	58.727	365.62	672.98	-126.31	372.56	379.52	68.413	241.95	927.3	324.03	345.03	763.48	-136.26	155.54	1044	-0.87417	220.93	1087.5	322.26	490.27	1622.4	29.346	311.36	1612.7	138.1	155.45	1047.3	68.651	187.46	1095.1	242.71	386.02	580.88	-112.52	173.83	1227.9	43.835	358.56	1418.3	208.55	348.5	1043.9	-121.95	114.11	175.65	-25.188	425.19	688.5	-85.196	335.91	566.77	157.09	380.36	523.94	-108.17	24.233	191.88	-66.172	297.72	70.015	23.056	227.29	1367	197.97	310.96	750.8	203.35	292.17	337.58	-108.16	224.03	268.91	-42.43	327.22	658.07	183.09	492.3	1617	103.75	265.94	68.644	98.75	166.37	75.914	-110.05	343.77	992.45	187.51	329.17	828.99	270.59	181.2	66.602	-31.061	95.464	178.61	-108.88	359.45	397.01	-30.822	302.77	337	-39.99
803	4.015	248.75	70.85	-47.265	314.35	1626.4	1.4863	342.88	521.29	152.92	351.04	1434	-114.35	390.49	672.96	143.92	264	1485.7	56.244	247.18	1115.6	-252.72	301.76	1242.9	-206.45	259.11	808.4	297.94	254.69	973.93	-258.04	422.85	27.528	63.275	213.52	34.913	36.329	386.9	503.71	24.496	366.75	820.62	-233.74	374.71	23.088	143.02	324.51	492.09	27.216	345.51	282.26	133.23	475.78	23.296	107.2	294.44	836.56	-248.61	326.85	786	321.5	334.96	197.61	54.675	355	283.56	58.768	373.14	674.69	-126.1	373.55	379.32	68.54	248.08	928.52	325	351.53	764.99	-136.17	160.47	1044.8	-0.47074	226.38	1088.6	323.26	495.51	1622.8	29.073	316.6	1613.5	137.85	160.34	1048	69.093	192.79	1096	243.75	394.52	582.82	-112.2	178.85	1228.6	44.337	363.86	1419.2	208.58	353.41	1044.4	-121.5	128.93	173.19	-24.657	432.69	690.86	-85.138	337.9	566.75	157.26	389.57	525.97	-107.91	38.726	187.53	-65.609	297.7	70	23.071	232.54	1368	198.3	314.25	750.96	203.52	304.25	338.04	-107.79	237.18	268.28	-42.05	329.87	658.09	183.26	497.5	1617.6	103.51	265.98	68.706	98.772	183.22	74.664	-109.56	348.46	992.93	188.11	335.66	830.64	271.46	198.37	65.5	-30.549	110.24	175.77	-108.33	370.39	398.58	-30.572	315.07	337.54	-39.687
804	4.02	266.16	70.552	-46.863	319.6	1627	1.2117	344.56	521.19	153.03	355.85	1434.5	-114.35	393.21	672.58	144.03	269.13	1486.3	56.309	250.05	1116.6	-252.39	305.5	1243.6	-206.28	265.83	809.66	298.91	256.31	974.96	-258.06	422.85	27.53	63.219	213.5	34.929	36.336	395.55	505.34	24.503	367.05	820.48	-234.45	374.69	23.09	143.03	326.03	492.01	27.263	346.28	282.08	133.24	475.75	23.295	107.23	294.88	837.19	-249.16	333.71	787.62	322.38	335.37	197.49	54.669	355.68	283.37	58.802	380.61	676.39	-125.9	374.6	379.11	68.62	254.21	929.71	325.98	358.01	766.46	-136.09	165.39	1045.5	-0.074358	231.83	1089.7	324.26	500.76	1623.2	28.781	321.85	1614.3	137.59	165.23	1048.7	69.527	198.11	1096.9	244.8	402.93	584.74	-111.88	183.87	1229.2	44.837	369.15	1420.1	208.6	358.27	1044.9	-121.06	143.94	170.57	-24.115	440.08	693.19	-85.065	339.9	566.72	157.43	398.66	527.97	-107.65	53.444	182.96	-65.027	297.69	69.984	23.088	237.8	1368.9	198.62	317.52	751.09	203.68	316.33	338.45	-107.4	250.43	267.55	-41.671	332.52	658.09	183.42	502.7	1618.1	103.25	266.02	68.768	98.793	200.29	73.33	-109.07	353.14	993.37	188.66	342.17	832.27	272.31	215.78	64.33	-30.017	125.22	172.76	-107.77	381.25	400.1	-30.296	327.14	337.94	-39.282
805	4.025	283.77	70.246	-46.455	324.84	1627.5	0.925	346.24	521.08	153.15	360.67	1434.9	-114.36	395.92	672.18	144.14	274.26	1486.9	56.363	252.94	1117.6	-252.08	309.25	1244.2	-206.1	272.55	810.89	299.87	257.96	975.96	-258.08	422.85	27.53	63.157	213.48	34.946	36.348	403.94	506.98	24.395	367.36	820.33	-235.16	374.67	23.094	143.05	327.55	491.94	27.311	347.05	281.9	133.26	475.72	23.294	107.26	295.34	837.81	-249.7	340.57	789.22	323.25	335.77	197.36	54.662	356.39	283.18	58.828	388.02	678.06	-125.72	375.74	378.88	68.652	260.36	930.88	326.96	364.44	767.9	-136.01	170.3	1046.1	0.3154	237.27	1090.8	325.26	506	1623.6	28.47	327.1	1615	137.32	170.1	1049.4	69.95	203.43	1097.8	245.86	411.24	586.64	-111.57	188.9	1229.8	45.332	374.46	1421	208.6	363.07	1045.3	-120.66	159.13	167.81	-23.564	447.37	695.49	-84.979	341.9	566.68	157.59	407.63	529.92	-107.4	68.387	178.19	-64.431	297.67	69.969	23.105	243.06	1369.8	198.93	320.79	751.19	203.83	328.43	338.78	-107.01	263.77	266.73	-41.293	335.15	658.07	183.58	507.89	1618.5	102.98	266.05	68.83	98.811	217.59	71.927	-108.57	357.82	993.78	189.18	348.69	833.88	273.16	233.41	63.109	-29.464	140.39	169.59	-107.2	392.05	401.56	-29.997	338.98	338.2	-38.777
806	4.03	301.57	69.94	-46.041	330.09	1628	0.62771	347.95	520.96	153.26	365.49	1435.2	-114.38	398.64	671.78	144.24	279.39	1487.5	56.406	255.84	1118.6	-251.77	313.03	1244.8	-205.93	279.27	812.09	300.83	259.62	976.93	-258.09	422.85	27.53	63.093	213.47	34.965	36.365	412.12	508.61	24.203	367.7	820.17	-235.88	374.64	23.098	143.06	329.08	491.86	27.358	347.83	281.71	133.26	475.7	23.293	107.29	295.81	838.42	-250.25	347.45	790.78	324.1	336.18	197.23	54.657	357.13	282.98	58.846	395.36	679.69	-125.55	376.95	378.64	68.635	266.51	932.01	327.93	370.84	769.29	-135.95	175.21	1046.7	0.6986	242.7	1091.8	326.26	511.25	1623.9	28.141	332.36	1615.7	137.03	174.97	1050	70.362	208.76	1098.7	246.93	419.46	588.51	-111.27	193.93	1230.4	45.82	379.76	1421.8	208.6	367.82	1045.7	-120.27	174.5	164.93	-23.007	454.55	697.75	-84.884	343.92	566.62	157.74	416.47	531.84	-107.14	83.553	173.24	-63.825	297.66	69.953	23.12	248.33	1370.7	199.24	324.04	751.26	203.97	340.54	339.06	-106.6	277.21	265.81	-40.911	337.79	658.03	183.74	513.09	1618.9	102.69	266.08	68.893	98.827	235.09	70.468	-108.06	362.51	994.16	189.65	355.21	835.45	273.99	251.26	61.855	-28.891	155.76	166.27	-106.62	402.79	402.98	-29.679	350.6	338.32	-38.181
807	4.035	319.53	69.643	-45.621	335.34	1628.4	0.32126	349.67	520.83	153.36	370.32	1435.5	-114.4	401.35	671.36	144.34	284.52	1488	56.437	258.77	1119.5	-251.46	316.82	1245.3	-205.75	285.99	813.24	301.78	261.3	977.86	-258.09	422.86	27.527	63.028	213.47	34.984	36.387	420.14	510.23	23.959	368.05	820	-236.61	374.62	23.104	143.07	330.62	491.78	27.404	348.63	281.51	133.26	475.68	23.292	107.32	296.32	839.01	-250.79	354.34	792.3	324.94	336.61	197.08	54.653	357.9	282.78	58.857	402.62	681.28	-125.38	378.25	378.38	68.573	272.68	933.1	328.9	377.2	770.63	-135.9	180.1	1047.3	1.0747	248.15	1092.8	327.26	516.5	1624.1	27.797	337.63	1616.4	136.74	179.82	1050.5	70.76	214.08	1099.5	247.99	427.56	590.35	-110.97	198.96	1230.9	46.301	385.06	1422.6	208.58	372.54	1046	-119.91	190.06	161.94	-22.448	461.64	699.95	-84.781	345.96	566.55	157.9	425.19	533.69	-106.89	98.942	168.12	-63.215	297.65	69.937	23.133	253.61	1371.5	199.53	327.29	751.3	204.11	352.64	339.28	-106.2	290.73	264.82	-40.523	340.43	657.96	183.89	518.28	1619.3	102.4	266.11	68.958	98.838	252.78	68.963	-107.56	367.2	994.5	190.08	361.75	836.98	274.81	269.31	60.586	-28.3	171.31	162.83	-106.04	413.47	404.36	-29.342	362.02	338.33	-37.507
